<svg id="Layer_3" enable-background="new 0 0 64 64" height="512" viewBox="0 0 64 64" width="512" xmlns="http://www.w3.org/2000/svg"><path d="m44 26c-4.617 0-8.814 1.753-12 4.61-3.186-2.857-7.383-4.61-12-4.61-9.941 0-18 8.059-18 18s8.059 18 18 18c4.617 0 8.814-1.753 12-4.611 3.186 2.858 7.383 4.611 12 4.611 9.941 0 18-8.059 18-18s-8.059-18-18-18z" fill="#4d5d7a"/><path d="m32 30.61c-3.186-2.857-7.383-4.61-12-4.61-9.941 0-18 8.059-18 18 0 3.352.933 6.479 2.529 9.167 4.019 1.179 8.391 1.833 12.971 1.833 19.606 0 35.5-11.864 35.5-26.5 0-.025-.002-.049-.003-.074-2.649-1.534-5.716-2.426-8.997-2.426-4.617 0-8.814 1.753-12 4.61z" fill="#8892a0"/><path d="m48 38h3c1.105 0 2 .895 2 2 0 1.105-.895 2-2 2h-3" fill="#efbe9a"/><path d="m53 56v-4c0-3.314-2.686-6-6-6h-6c-3.314 0-6 2.686-6 6v4" fill="#f5b953"/><path d="m50 56v-4c0-3.314-2.686-6-6-6h-3c-3.314 0-6 2.686-6 6v4" fill="#f9d18b"/><g fill="#db9b7c"><path d="m41 46v1c0 1.657 1.343 3 3 3 1.657 0 3-1.343 3-3v-1"/><path d="m40 38h-3c-1.105 0-2 .895-2 2 0 1.105.895 2 2 2h3"/><path d="m49 34v7c0 2.761-2.239 5-5 5-2.761 0-5-2.239-5-5v-7"/></g><path d="m43 45.899c2.282-.463 4-2.48 4-4.899v-7h-8v7c0 2.419 1.718 4.436 4 4.899z" fill="#efbe9a"/><path d="m47 34c0 2.209-3.791 4-6 4h-4v-4c0-2.209 1.791-4 4-4h6c2.209 0 4 1.791 4 4v4c-2.209 0-4-1.791-4-4z" fill="#a66d43"/><path d="m47 34c0 .383.071.745.171 1.096.528-.774.829-1.657.829-2.596 0-.891-.276-1.731-.755-2.475-.083-.005-.161-.025-.245-.025h-6c-2.209 0-4 1.791-4 4v3.01c1.134.622 2.512.99 4 .99 2.209 0 6-1.791 6-4z" fill="#c18e59"/><path d="m24 38h3c1.105 0 2 .895 2 2 0 1.105-.895 2-2 2h-3" fill="#efbe9a"/><path d="m29 56v-4c0-3.314-2.686-6-6-6h-6c-3.314 0-6 2.686-6 6v4" fill="#669e4f"/><path d="m26 56v-4c0-3.314-2.686-6-6-6h-3c-3.314 0-6 2.686-6 6v4" fill="#78b75b"/><path d="m17 46v1c0 1.657 1.343 3 3 3 1.657 0 3-1.343 3-3v-1" fill="#db9b7c"/><path d="m16 38h-3c-1.105 0-2 .895-2 2 0 1.105.895 2 2 2h3" fill="#db9b7c"/><path d="m25 34v7c0 2.761-2.239 5-5 5-2.761 0-5-2.239-5-5v-7" fill="#db9b7c"/><path d="m19 45.899c2.282-.463 4-2.48 4-4.899v-7h-8v7c0 2.419 1.718 4.436 4 4.899z" fill="#efbe9a"/><path d="m23 34c0 2.209-3.791 4-6 4h-4v-4c0-2.209 1.791-4 4-4h6c2.209 0 4 1.791 4 4v4c-2.209 0-4-1.791-4-4z" fill="#a66d43"/><path d="m23 34c0 .383.071.745.171 1.096.528-.774.829-1.657.829-2.596 0-.891-.276-1.731-.755-2.475-.083-.005-.161-.025-.245-.025h-6c-2.209 0-4 1.791-4 4v3.01c1.134.622 2.512.99 4 .99 2.209 0 6-1.791 6-4z" fill="#c18e59"/><path d="m32 19c-1.654 0-3-1.346-3-3s1.346-3 3-3 3 1.346 3 3-1.346 3-3 3zm0-4c-.552 0-1 .449-1 1s.448 1 1 1 1-.449 1-1-.448-1-1-1z"/><path d="m38.294 13.708-.172-.171c-1.636-1.637-3.81-2.537-6.122-2.537s-4.486.9-6.121 2.536l-.173.172-1.412-1.416.172-.171c2.012-2.013 4.687-3.121 7.534-3.121s5.522 1.108 7.535 3.122l.171.17z"/><path d="m41.293 10.707c-2.391-2.391-5.569-3.707-8.95-3.707h-.686c-3.381 0-6.56 1.316-8.95 3.707l-1.414-1.414c2.769-2.769 6.449-4.293 10.364-4.293h.686c3.915 0 7.596 1.524 10.364 4.293z"/><path d="m44.293 7.707c-3.035-3.035-7.071-4.707-11.364-4.707h-1.857c-4.293 0-8.329 1.672-11.364 4.707l-1.414-1.414c3.411-3.413 7.95-5.293 12.777-5.293h1.857c4.827 0 9.366 1.88 12.778 5.293z"/><path d="m51 39c-1.794 0-3.371-.95-4.253-2.374-1.537 1.498-4.135 2.374-5.747 2.374h-4c-.553 0-1-.448-1-1v-4c0-2.757 2.243-5 5-5h6c2.757 0 5 2.243 5 5v4c0 .552-.447 1-1 1zm-13-2h3c1.975 0 5-1.609 5-3 0-.552.447-1 1-1s1 .448 1 1c0 1.304.836 2.416 2 2.829v-2.829c0-1.654-1.346-3-3-3h-6c-1.654 0-3 1.346-3 3z"/><path d="m44 47c-3.309 0-6-2.691-6-6v-3h2v3c0 2.206 1.794 4 4 4s4-1.794 4-4v-4h2v4c0 3.309-2.691 6-6 6z"/><path d="m39 43h-2c-1.654 0-3-1.346-3-3s1.346-3 3-3h1v2h-1c-.552 0-1 .449-1 1s.448 1 1 1h2z"/><path d="m51 43h-2v-2h2c.552 0 1-.449 1-1s-.448-1-1-1h-1v-2h1c1.654 0 3 1.346 3 3s-1.346 3-3 3z"/><path d="m53 57h-18c-.553 0-1-.448-1-1v-4c0-3.86 3.141-7 7-7h6c3.859 0 7 3.14 7 7v4c0 .552-.447 1-1 1zm-17-2h16v-3c0-2.757-2.243-5-5-5h-6c-2.757 0-5 2.243-5 5z"/><path d="m44 51c-2.206 0-4-1.794-4-4v-1h2v1c0 1.103.897 2 2 2s2-.897 2-2v-1h2v1c0 2.206-1.794 4-4 4z"/><path d="m38 51h2v5h-2z"/><path d="m48 51h2v5h-2z"/><path d="m27 39c-1.794 0-3.371-.95-4.253-2.374-1.537 1.498-4.135 2.374-5.747 2.374h-4c-.553 0-1-.448-1-1v-4c0-2.757 2.243-5 5-5h6c2.757 0 5 2.243 5 5v4c0 .552-.447 1-1 1zm-13-2h3c1.975 0 5-1.609 5-3 0-.552.447-1 1-1s1 .448 1 1c0 1.304.836 2.416 2 2.829v-2.829c0-1.654-1.346-3-3-3h-6c-1.654 0-3 1.346-3 3z"/><path d="m20 47c-3.309 0-6-2.691-6-6v-3h2v3c0 2.206 1.794 4 4 4s4-1.794 4-4v-4h2v4c0 3.309-2.691 6-6 6z"/><path d="m15 43h-2c-1.654 0-3-1.346-3-3s1.346-3 3-3h1v2h-1c-.552 0-1 .449-1 1s.448 1 1 1h2z"/><path d="m27 43h-2v-2h2c.552 0 1-.449 1-1s-.448-1-1-1h-1v-2h1c1.654 0 3 1.346 3 3s-1.346 3-3 3z"/><path d="m29 57h-18c-.553 0-1-.448-1-1v-4c0-3.86 3.141-7 7-7h6c3.859 0 7 3.14 7 7v4c0 .552-.447 1-1 1zm-17-2h16v-3c0-2.757-2.243-5-5-5h-6c-2.757 0-5 2.243-5 5z"/><path d="m20 51c-2.206 0-4-1.794-4-4v-1h2v1c0 1.103.897 2 2 2s2-.897 2-2v-1h2v1c0 2.206-1.794 4-4 4z"/><path d="m14 51h2v5h-2z"/><path d="m24 51h2v5h-2z"/><path d="m44 63c-4.378 0-8.605-1.519-12-4.294-3.395 2.775-7.622 4.294-12 4.294-10.477 0-19-8.523-19-19s8.523-19 19-19c4.378 0 8.605 1.519 12 4.294 3.395-2.775 7.622-4.294 12-4.294 10.477 0 19 8.523 19 19s-8.523 19-19 19zm-12-6.61c.239 0 .478.085.668.255 3.132 2.809 7.156 4.355 11.332 4.355 9.374 0 17-7.626 17-17s-7.626-17-17-17c-4.176 0-8.2 1.546-11.332 4.355-.381.341-.955.341-1.336 0-3.132-2.809-7.156-4.355-11.332-4.355-9.374 0-17 7.626-17 17s7.626 17 17 17c4.176 0 8.2-1.546 11.332-4.355.19-.17.429-.255.668-.255z"/></svg>