<svg height="512pt" viewBox="0 -35 512.00068 512" width="512pt" xmlns="http://www.w3.org/2000/svg"><path d="m485.519531 17.65625h-300.140625c-9.738281.027344-17.625 7.914062-17.65625 17.652344v79.449218h61.796875v35.3125h-61.796875v79.445313c.03125 9.742187 7.917969 17.628906 17.65625 17.65625h300.140625c9.738281-.027344 17.625-7.914063 17.652344-17.65625v-194.207031c-.027344-9.738282-7.914063-17.625-17.652344-17.652344zm-132.414062 136.472656v31.25h-35.3125v-31.25c-16.886719-9.75-22.675781-31.34375-12.921875-48.234375 9.75-16.886719 31.34375-22.675781 48.234375-12.925781 16.886719 9.753906 22.675781 31.347656 12.921875 48.238281-3.097656 5.367188-7.554688 9.824219-12.921875 12.921875zm0 0" fill="#ff9478"/><path d="m167.722656 114.757812h-61.792968v.796876c-2.914063-.511719-5.867188-.777344-8.828126-.796876l-8.824218 35.3125 8.824218 70.621094-17.652343 17.652344-17.65625-17.652344 8.828125-70.621094-8.828125-35.3125c-29.25 0-52.964844 23.714844-52.964844 52.964844v88.277344h123.585937v-105.929688h97.105469v-35.3125zm0 0" fill="#1e81ce"/><path d="m97.105469 92.25c10.886719-6.285156 17.609375-17.886719 17.652343-30.457031v-17.65625c0-19.5-15.808593-35.308594-35.308593-35.308594s-35.308594 15.808594-35.308594 35.308594v17.65625c.042969 12.570312 6.765625 24.171875 17.652344 30.457031v22.507812h35.3125zm0 0" fill="#ffdaaa"/><path d="m88.277344 150.070312 8.828125-35.3125h-35.3125l8.828125 35.3125zm0 0" fill="#ff6243"/><path d="m61.792969 220.691406 17.65625 17.652344 17.65625-17.652344-8.828125-70.621094h-17.65625zm0 0" fill="#ff6243"/><path d="m35.46875 256h-8.984375v176.550781h105.929687v-176.550781zm0 0" fill="#57565c"/><path d="m317.792969 247.171875h35.3125v185.378906h-35.3125zm0 0" fill="#78b9eb"/><path d="m335.449219 88.277344c-19.5 0-35.308594 15.808594-35.308594 35.308594 0 19.503906 15.808594 35.3125 35.308594 35.3125s35.308593-15.808594 35.308593-35.3125c0-19.5-15.808593-35.308594-35.308593-35.308594zm0 0" fill="#ffde55"/><path d="m317.792969 154.128906v31.25h35.3125v-31.25c-10.914063 6.355469-24.398438 6.355469-35.3125 0zm0 0" fill="#ff6243"/><g fill="#2d2d30"><path d="m485.519531 8.828125h-300.140625c-14.625 0-26.480468 11.855469-26.480468 26.484375v70.617188h-52.96875v-8.976563c11.136718-8.25 17.6875-21.300781 17.65625-35.160156v-17.65625c0-24.375-19.761719-44.136719-44.136719-44.136719-24.378907 0-44.140625 19.761719-44.140625 44.136719v17.65625c-.03125 13.859375 6.523437 26.910156 17.65625 35.160156v9.605469c-30.382813 4.425781-52.9257815 30.460937-52.964844 61.164062v88.277344c0 4.875 3.953125 8.828125 8.828125 8.828125h8.828125v167.722656c0 4.875 3.953125 8.828125 8.828125 8.828125h105.929687c4.875 0 8.828126-3.953125 8.828126-8.828125v-273.652343h17.65625v70.617187c0 14.628906 11.855468 26.484375 26.484374 26.484375h123.585938v167.722656h-44.140625v17.65625h141.242187v-17.65625h-44.136718v-167.722656h123.585937c14.625 0 26.480469-11.855469 26.480469-26.484375v-194.207031c0-14.625-11.855469-26.480469-26.480469-26.480469zm-432.554687 35.308594c0-14.625 11.859375-26.480469 26.484375-26.480469s26.484375 11.855469 26.484375 26.480469v17.65625c-.027344 9.449219-5.101563 18.164062-13.304688 22.847656-2.695312 1.585937-4.351562 4.480469-4.351562 7.609375v13.679688h-17.65625v-13.679688c0-3.128906-1.65625-6.023438-4.351563-7.609375-8.203125-4.683594-13.277343-13.398437-13.304687-22.847656zm34.84375 173.367187-8.359375 8.359375-8.359375-8.359375 7.324218-58.605468h2.066407zm-14.707032-93.917968h12.695313l-4.414063 17.65625h-3.867187zm50.484376 300.136718h-35.308594v-114.757812h-17.65625v114.757812h-35.308594v-158.894531h88.273438zm8.828124-282.480468c-4.875 0-8.828124 3.953124-8.828124 8.828124v97.101563h-79.28125v-79.445313h-17.652344v79.445313h-8.996094v-79.445313c.082031-21.722656 15.953125-40.152343 37.417969-43.460937l6.585937 26.335937-8.625 68.992188c-.335937 2.703125.59375 5.410156 2.515625 7.335938l17.65625 17.65625c3.449219 3.445312 9.035157 3.445312 12.480469 0l17.65625-17.65625c1.925781-1.925782 2.855469-4.632813 2.515625-7.335938l-8.625-68.996094 6.605469-26.394531c.226562 0 .40625 0 .632812.054687 1.53125.21875 3.09375-.015624 4.492188-.671874h111.722656v17.65625zm211.863282 282.480468h-17.65625v-167.722656h17.65625zm150.066406-194.207031c0 4.878906-3.949219 8.828125-8.824219 8.828125h-300.140625c-4.875 0-8.828125-3.949219-8.828125-8.828125v-70.617187h52.964844c4.875 0 8.828125-3.953126 8.828125-8.828126v-35.3125c0-4.875-3.949219-8.828124-8.828125-8.828124h-52.964844v-70.621094c0-4.875 3.953125-8.824219 8.828125-8.824219h300.140625c4.875 0 8.824219 3.949219 8.824219 8.824219zm0 0"/><path d="m335.449219 79.449219c-24.351563-.019531-44.113281 19.703125-44.132813 44.054687-.011718 13.898438 6.527344 26.988282 17.648438 35.324219v26.550781c0 4.875 3.953125 8.828125 8.828125 8.828125h8.828125v8.828125h17.65625v-8.828125h8.828125c4.875 0 8.828125-3.953125 8.828125-8.828125v-26.550781c19.484375-14.605469 23.441406-42.242187 8.839844-61.730469-8.335938-11.121094-21.425782-17.660156-35.324219-17.648437zm8.828125 97.101562h-17.65625v-9.710937c.328125.074218.660156.046875.980468.109375 5.175782 1.070312 10.519532 1.070312 15.695313 0 .328125-.0625.660156 0 .980469-.109375zm4.414062-30.066406c-6.0625 3.507813-13.265625 4.460937-20.03125 2.648437-2.261718-.597656-4.4375-1.488281-6.46875-2.648437-12.667968-7.3125-17.007812-23.507813-9.695312-36.175781 7.3125-12.664063 23.511718-17.003906 36.175781-9.691406 12.667969 7.3125 17.007813 23.507812 9.695313 36.175781-2.324219 4.023437-5.667969 7.367187-9.695313 9.691406zm0 0"/><path d="m326.621094 52.964844h17.65625v17.65625h-17.65625zm0 0"/><path d="m279.265625 79.894531 12.480469-12.484375 12.492187 12.492188-12.484375 12.480468zm0 0"/><path d="m264.828125 114.757812h17.65625v17.65625h-17.65625zm0 0"/><path d="m388.414062 114.757812h17.65625v17.65625h-17.65625zm0 0"/><path d="m366.652344 79.898438 12.492187-12.488282 12.480469 12.480469-12.488281 12.492187zm0 0"/></g></svg>